<?xml version="1.0" encoding="utf-8"?>
<!-- Generator: Adobe Illustrator 19.0.0, SVG Export Plug-In . SVG Version: 6.00 Build 0)  -->
<svg version="1.1" id="Layer_1" xmlns="http://www.w3.org/2000/svg" xmlns:xlink="http://www.w3.org/1999/xlink" x="0px" y="0px"
	 viewBox="0 0 92 92" style="enable-background:new 0 0 92 92;" xml:space="preserve">
<style type="text/css">
	.st0{fill:#333333;}
</style>
<g id="XMLID_1_">
	<path id="XMLID_17_" class="st0" d="M73.4,71.1L60.9,53.2c0-0.1-0.1-0.1-0.1-0.1c6.9-7.4,8-18.9,2-27.6c-6.9-10-20.6-12.5-30.6-5.5
		c-10,6.9-12.5,20.6-5.5,30.6c6,8.6,17,11.6,26.3,7.8c0,0.1,0.1,0.1,0.1,0.2l12.5,17.9c1.3,1.9,4.1,2.1,6.3,0.6
		C73.9,75.7,74.6,73,73.4,71.1z M30.4,47.9c-5.5-7.9-3.5-18.7,4.4-24.2c7.9-5.5,18.7-3.5,24.2,4.4c5.5,7.9,3.5,18.7-4.4,24.2
		C46.8,57.8,35.9,55.8,30.4,47.9z"/>
	<path id="XMLID_15_" class="st0" d="M36.7,40v-4h16v4H36.7z"/>
</g>
</svg>
