<?xml version="1.0" encoding="utf-8"?>
<!-- Generator: Adobe Illustrator 19.0.0, SVG Export Plug-In . SVG Version: 6.00 Build 0)  -->
<svg version="1.1" id="_x2014_ÎÓÈ_x5F_1" xmlns="http://www.w3.org/2000/svg" xmlns:xlink="http://www.w3.org/1999/xlink"
	 x="0px" y="0px" viewBox="0 0 40 40" style="enable-background:new 0 0 40 40;" xml:space="preserve">
<style type="text/css">
	.st0{fill:#666666;}
</style>
<path class="st0" d="M39,16.9c-0.7-0.2-1.7-0.5-2.9-0.8c-0.2,0-0.4-0.1-0.5-0.2c0,0-0.1,0-0.1-0.1c-0.3-0.2-0.4-0.4-0.5-0.7
	c-0.2-0.8-0.6-1.5-0.9-2.2c-0.1-0.3-0.2-0.6-0.1-0.9c0-0.1,0-0.2,0.1-0.3c0-0.2,0.1-0.3,0.2-0.4c0.6-1,1.1-1.9,1.4-2.5
	c0.3-0.6,0.2-1.3-0.3-1.8l-0.4-0.4l-1.5-1.5L33,4.7c-0.5-0.5-1.2-0.6-1.8-0.3c-0.7,0.3-1.6,0.8-2.6,1.5c-0.2,0.1-0.3,0.2-0.5,0.2
	c0,0-0.1,0-0.1,0c-0.3,0.1-0.6,0-0.9-0.1c-0.7-0.4-1.4-0.7-2.2-0.9c-0.3-0.1-0.5-0.3-0.7-0.5c-0.1-0.1-0.1-0.2-0.2-0.3
	c-0.1-0.1-0.1-0.3-0.2-0.4c-0.3-1.1-0.5-2.1-0.8-2.8C22.9,0.4,22.3,0,21.6,0h-0.5h-2.2h-0.5c-0.7,0-1.2,0.4-1.4,1
	c-0.2,0.7-0.5,1.7-0.8,2.9c0,0.2-0.1,0.4-0.2,0.5c0,0,0,0.1-0.1,0.1c-0.2,0.3-0.4,0.4-0.7,0.5c-0.8,0.2-1.5,0.6-2.2,0.9
	c-0.3,0.1-0.6,0.2-0.9,0.1c-0.1,0-0.2,0-0.3-0.1c-0.2,0-0.3-0.1-0.4-0.2c-1-0.6-1.9-1.1-2.5-1.4C8.2,4.1,7.5,4.2,7,4.7L6.6,5.1
	L5.1,6.6L4.7,7C4.2,7.5,4.1,8.2,4.4,8.8c0.3,0.7,0.8,1.6,1.5,2.6c0.1,0.2,0.2,0.3,0.2,0.5c0,0,0,0.1,0,0.1c0.1,0.3,0,0.6-0.1,0.9
	c-0.4,0.7-0.7,1.4-0.9,2.2c-0.1,0.3-0.3,0.5-0.5,0.7c-0.1,0.1-0.2,0.1-0.3,0.2c-0.1,0.1-0.3,0.1-0.4,0.2c-1.1,0.3-2.1,0.5-2.8,0.8
	C0.4,17.1,0,17.7,0,18.4v0.5v2.2v0.5c0,0.7,0.4,1.2,1,1.4c0.7,0.2,1.7,0.5,2.9,0.8c0.2,0,0.4,0.1,0.5,0.2c0,0,0.1,0,0.1,0.1
	c0.3,0.2,0.4,0.4,0.5,0.7c0.2,0.8,0.6,1.5,0.9,2.2c0.1,0.3,0.2,0.6,0.1,0.9c0,0.1,0,0.2-0.1,0.3c0,0.2-0.1,0.3-0.2,0.4
	c-0.6,1-1.1,1.9-1.4,2.5c-0.3,0.6-0.2,1.3,0.3,1.8l0.4,0.4l1.5,1.5L7,35.3c0.5,0.5,1.2,0.6,1.8,0.3c0.7-0.3,1.6-0.8,2.6-1.5
	c0.2-0.1,0.3-0.2,0.5-0.2c0,0,0.1,0,0.1,0c0.3-0.1,0.6,0,0.9,0.1c0.7,0.4,1.4,0.7,2.2,0.9c0.3,0.1,0.5,0.3,0.7,0.5
	c0.1,0.1,0.1,0.2,0.2,0.3c0.1,0.1,0.1,0.3,0.2,0.4c0.3,1.1,0.5,2.1,0.8,2.8c0.2,0.6,0.8,1.1,1.4,1.1h0.5h2.2h0.5
	c0.7,0,1.2-0.4,1.4-1c0.2-0.7,0.5-1.7,0.8-2.9c0-0.2,0.1-0.4,0.2-0.5c0,0,0-0.1,0.1-0.1c0.2-0.3,0.4-0.4,0.7-0.5
	c0.8-0.2,1.5-0.6,2.2-0.9c0.3-0.1,0.6-0.2,0.9-0.1c0.1,0,0.2,0,0.3,0.1c0.2,0,0.3,0.1,0.4,0.2c1,0.6,1.9,1.1,2.5,1.4
	c0.6,0.3,1.3,0.2,1.8-0.3l0.4-0.4l1.5-1.5l0.4-0.4c0.5-0.5,0.6-1.2,0.3-1.8c-0.3-0.7-0.8-1.6-1.5-2.6c-0.1-0.2-0.2-0.3-0.2-0.5
	c0,0,0-0.1,0-0.1c-0.1-0.3,0-0.6,0.1-0.9c0.4-0.7,0.7-1.4,0.9-2.2c0.1-0.3,0.3-0.5,0.5-0.7c0.1-0.1,0.2-0.1,0.3-0.2
	c0.1-0.1,0.3-0.1,0.4-0.2c1.1-0.3,2.1-0.5,2.8-0.8c0.6-0.2,1.1-0.8,1.1-1.4v-0.5v-2.2v-0.5C40,17.7,39.6,17.1,39,16.9z M20,29.1
	c-5,0-9.1-4.1-9.1-9.1s4.1-9.1,9.1-9.1s9.1,4.1,9.1,9.1S25,29.1,20,29.1z"/>
</svg>
