<?xml version="1.0" encoding="utf-8"?>
<!-- Generator: Adobe Illustrator 19.0.0, SVG Export Plug-In . SVG Version: 6.00 Build 0)  -->
<svg version="1.1" id="Layer_1" xmlns="http://www.w3.org/2000/svg" xmlns:xlink="http://www.w3.org/1999/xlink" x="0px" y="0px"
	 viewBox="-753 923.8 411.6 74.2" style="enable-background:new -753 923.8 411.6 74.2;" xml:space="preserve">
<style type="text/css">
	.st0{fill:#DE0000;}
	.st1{fill:#555555;}
	.st2{fill:#FFFFFF;}
</style>
<title>Quru Image Server</title>
<g id="Layer_2">
	<g id="Layer_1-2">
		<rect x="-735.3" y="923.8" class="st0" width="14.4" height="14.4"/>
		<rect x="-745" y="938.2" class="st0" width="9.6" height="9.6"/>
		<rect x="-753" y="930.2" class="st0" width="8" height="8"/>
		<rect x="-750.2" y="947.8" class="st0" width="5.2" height="5.2"/>
		<path class="st1" d="M-676.5,971.2c1.1-3.5,1.6-7.1,1.6-10.7v-0.2c0-4.9-0.9-9.7-2.8-14.2c-1.8-4.3-4.4-8.3-7.8-11.5
			c-3.4-3.3-7.5-6-11.9-7.8c-4.8-2-9.9-2.9-15.1-2.9l0,0v14.4c2.9,0,5.8,0.6,8.4,1.8c5.2,2.3,9.2,6.6,11.3,11.8
			c1.1,2.7,1.6,5.7,1.6,8.6v0.2c0.1,3.3-0.6,6.6-1.9,9.7l-11.6-10.5l-9.9,11.2l11.5,9.8c-2.9,1.3-6.1,1.9-9.3,1.9
			c-3,0-5.9-0.6-8.7-1.8c-2.6-1.1-4.9-2.8-6.8-4.8c-1.9-2-3.5-4.4-4.5-7.1c-1.1-2.7-1.6-5.7-1.6-8.6l0,0h-16.3v0.3
			c0,4.9,0.9,9.7,2.8,14.2c1.8,4.3,4.4,8.3,7.8,11.5c3.4,3.3,7.5,6,11.9,7.8c4.8,2,9.9,2.9,15.1,2.9c3.8,0,7.6-0.5,11.2-1.6
			c3.5-1,6.8-2.5,9.8-4.5l7.8,7l9.9-11l-7.3-6.2C-679.2,977.8-677.6,974.6-676.5,971.2z"/>
		<path class="st0" d="M-625.2,973.8l-2.3-2.1c-1.9,1.2-4,1.8-6.2,1.8c-5.9,0.2-10.9-4.4-11.1-10.4c0-0.1,0-0.3,0-0.4v-0.1
			c0.2-6.2,5.4-11,11.6-10.7c5.8,0.2,10.5,4.9,10.7,10.7v0.1c0,2.1-0.7,4.2-1.9,6l2.2,1.8L-625.2,973.8z M-630.9,968.7l-3.4-2.9
			l2.9-3.3l3.5,3.1c0.4-0.9,0.6-1.9,0.6-2.9v-0.1c0.1-3.5-2.6-6.5-6.2-6.6c-0.1,0-0.1,0-0.2,0c-3.5,0-6.3,2.8-6.3,6.3
			c0,0.1,0,0.2,0,0.3v0.1c-0.1,3.5,2.6,6.5,6.2,6.6c0.1,0,0.1,0,0.2,0C-632.7,969.3-631.8,969.1-630.9,968.7L-630.9,968.7z"/>
		<path class="st0" d="M-620.6,964.1v-12h4.6V964c0,3.4,1.7,5.2,4.5,5.2c2.8,0,4.5-1.7,4.5-5v-12h4.6V964c0,6.4-3.6,9.5-9.2,9.5
			S-620.6,970.3-620.6,964.1z"/>
		<path class="st0" d="M-599.3,952.1h9.6c2.2-0.1,4.4,0.6,6.1,2.1c1.2,1.3,1.9,3,1.8,4.8v0.1c0.1,2.9-1.7,5.6-4.5,6.5l5.1,7.5h-5.4
			l-4.5-6.7h-3.6v6.7h-4.6V952.1z M-590,962.3c2.2,0,3.5-1.2,3.5-3v-0.1c0-2-1.4-3-3.6-3h-4.6v6L-590,962.3z"/>
		<path class="st0" d="M-580,964.1v-12h4.6V964c0,3.4,1.7,5.2,4.5,5.2c2.8,0,4.5-1.7,4.5-5v-12h4.6V964c0,6.4-3.6,9.5-9.2,9.5
			S-580,970.3-580,964.1z"/>
		<path class="st2" d="M-551.8,952.1h4.6v21h-4.6V952.1z"/>
		<path class="st2" d="M-543.9,952.1h5l5.5,8.9l5.5-8.9h5v21h-4.6v-13.7l-5.9,9h-0.1l-5.8-8.9v13.6h-4.5L-543.9,952.1z"/>
		<path class="st2" d="M-512.8,952h4.3l9,21.2h-4.8l-1.9-4.7h-8.9l-1.9,4.7h-4.7L-512.8,952z M-508,964.3l-2.8-6.8l-2.8,6.8H-508z"
			/>
		<path class="st2" d="M-500.6,962.7L-500.6,962.7c0-6,4.7-10.9,10.7-10.9c0.1,0,0.2,0,0.3,0c3-0.2,6,0.9,8.2,2.9l-2.9,3.5
			c-1.5-1.4-3.5-2.2-5.5-2.1c-3.5,0.2-6.1,3.1-6,6.5v0.1c0,3.8,2.6,6.7,6.4,6.7c1.5,0,3.1-0.4,4.4-1.3v-3h-4.6v-4h9.1v9.1
			c-2.5,2.2-5.7,3.3-9,3.3C-496.1,973.5-500.6,968.9-500.6,962.7z"/>
		<path class="st2" d="M-477.9,952.1h15.8v4.1h-11.2v4.3h9.9v4.1h-9.9v4.4h11.4v4.1h-16L-477.9,952.1z"/>
		<path class="st2" d="M-454.2,970.1l2.7-3.3c1.7,1.6,3.9,2.5,6.3,2.5c1.9,0,3-0.8,3-2v-0.1c0-1.2-0.7-1.8-4.2-2.7
			c-4.2-1.1-7-2.2-7-6.4v-0.1c0-3.8,3.1-6.3,7.4-6.3c2.8,0,5.6,0.9,7.8,2.7l-2.4,3.5c-1.6-1.2-3.5-1.9-5.5-2.1
			c-1.8,0-2.7,0.8-2.7,1.8v0.1c0,1.4,0.9,1.8,4.5,2.8c4.3,1.1,6.7,2.6,6.7,6.3v0.1c0,4.2-3.2,6.5-7.7,6.5
			C-448.6,973.4-451.8,972.2-454.2,970.1z"/>
		<path class="st2" d="M-435.5,952.1h15.8v4.1h-11.2v4.3h9.9v4.1h-9.9v4.4h11.4v4.1h-16L-435.5,952.1z"/>
		<path class="st2" d="M-417.1,952.1h9.6c2.2-0.1,4.4,0.6,6.1,2.1c1.2,1.3,1.9,3,1.8,4.8v0.1c0.1,2.9-1.7,5.6-4.5,6.5l5.1,7.5h-5.4
			l-4.5-6.7h-3.6v6.7h-4.6V952.1z M-407.8,962.3c2.2,0,3.5-1.2,3.5-3v-0.1c0-2-1.4-3-3.6-3h-4.6v6L-407.8,962.3z"/>
		<path class="st2" d="M-400,952.1h5.1l5.5,14.8l5.5-14.8h5l-8.5,21.1h-4.1L-400,952.1z"/>
		<path class="st2" d="M-377.9,952.1h15.8v4.1h-11.2v4.3h9.9v4.1h-9.9v4.4h11.4v4.1h-16L-377.9,952.1z"/>
		<path class="st2" d="M-359.5,952.1h9.6c2.2-0.1,4.5,0.6,6.1,2.1c1.2,1.3,1.9,3,1.8,4.8v0.1c0.1,2.9-1.7,5.6-4.5,6.5l5.1,7.5h-5.4
			l-4.5-6.7h-3.6v6.7h-4.6V952.1z M-350.2,962.3c2.2,0,3.5-1.2,3.5-3v-0.1c0-2-1.4-3-3.6-3h-4.6v6L-350.2,962.3z"/>
	</g>
</g>
</svg>
