<svg xmlns="http://www.w3.org/2000/svg" viewBox="0 0 181.78 170.52"><defs><style>.cls-1{fill:#de0000;}.cls-2{fill:#555;}</style></defs><title>Q</title><g id="Layer_2" data-name="Layer 2"><g id="Layer_1-2" data-name="Layer 1"><rect class="cls-1" x="40.6" width="33.07" height="33.07"/><rect class="cls-1" x="18.45" y="33.07" width="22.14" height="22.14"/><rect class="cls-1" y="14.61" width="18.45" height="18.45"/><rect class="cls-1" x="6.43" y="55.21" width="12.03" height="12.03"/><path class="cls-2" d="M175.74,108.87a81.85,81.85,0,0,0,3.72-24.66v-.46a83.69,83.69,0,0,0-6.4-32.69,80.48,80.48,0,0,0-17.91-26.52A86.24,86.24,0,0,0,127.81,6.63,88.8,88.8,0,0,0,93.15,0h-.08V33.05a47.77,47.77,0,0,1,19.39,4.06A48.84,48.84,0,0,1,138.4,64.44,54.36,54.36,0,0,1,142,84.21v.47A53.55,53.55,0,0,1,137.58,107L110.83,82.82,88,108.41,114.55,131a52.3,52.3,0,0,1-21.4,4.43,47.42,47.42,0,0,1-19.89-4.08A49.07,49.07,0,0,1,47.44,104a54.13,54.13,0,0,1-3.61-19.78v-.12H6.38s0,.08,0,.12v.47a83.51,83.51,0,0,0,6.4,32.69,80.25,80.25,0,0,0,17.92,26.52A86.08,86.08,0,0,0,58,161.8a88.76,88.76,0,0,0,34.66,6.63,90.06,90.06,0,0,0,25.82-3.6,87.77,87.77,0,0,0,22.57-10.36L159,170.52l22.79-25.35L165,131A83.25,83.25,0,0,0,175.74,108.87Z"/></g></g></svg>